<svg xmlns="http://www.w3.org/2000/svg" viewBox="243 -825 320 180"><defs><style>.a{fill:#e8e8e8;}.b{fill:#fff;stroke:rgba(0,0,0,0);opacity:0.5;}</style></defs><rect class="a" width="320" height="180" transform="translate(243 -825)"/><path class="b" d="M.1-18.163a5.46,5.46,0,0,1,.66-1.82,3.833,3.833,0,0,1,.966-1.084,3.028,3.028,0,0,1,1.1-.521,4.8,4.8,0,0,1,1.084-.133,2.631,2.631,0,0,1,.915.164,2.52,2.52,0,0,1,.787.46,2.308,2.308,0,0,1,.552.711,2.02,2.02,0,0,1,.21.925,5.285,5.285,0,0,1-.061.859H5.338q.02-.174.031-.3t.01-.266a.626.626,0,0,0-.24-.537.908.908,0,0,0-.557-.179,1.172,1.172,0,0,0-.373.072,1.228,1.228,0,0,0-.419.261,1.9,1.9,0,0,0-.389.527,3.132,3.132,0,0,0-.281.859l-.358,1.656H4.295l-.153.838H2.6L.185-4.36A5.621,5.621,0,0,1-.465-2.54a3.827,3.827,0,0,1-.941,1.084,2.9,2.9,0,0,1-1.079.521A4.669,4.669,0,0,1-3.558-.8a2.631,2.631,0,0,1-.915-.164,2.584,2.584,0,0,1-.792-.46,2.273,2.273,0,0,1-.557-.711,2.02,2.02,0,0,1-.21-.925,2.445,2.445,0,0,1,.281-1.222,2.649,2.649,0,0,1,.772-.849,4.9,4.9,0,0,1,1.145-.6q.654-.245,1.4-.47ZM-2.576-5.515a8.391,8.391,0,0,0-.915.363,3.266,3.266,0,0,0-.731.46A2.006,2.006,0,0,0-4.7-4.1a1.566,1.566,0,0,0-.174.746.545.545,0,0,0,.061.245.708.708,0,0,0,.174.22,1.029,1.029,0,0,0,.266.164.84.84,0,0,0,.337.066.8.8,0,0,0,.332-.077A.955.955,0,0,0-3.379-3a1.982,1.982,0,0,0,.291-.506A4.583,4.583,0,0,0-2.852-4.3ZM8.947-7.08a4.867,4.867,0,0,1-.5.455,3.467,3.467,0,0,1-.578.368,3.271,3.271,0,0,1-.67.251,3.071,3.071,0,0,1-.767.092,3.159,3.159,0,0,1-1.043-.174A2.269,2.269,0,0,1,4.5-6.66,2.891,2.891,0,0,1,3.876-7.7a4.617,4.617,0,0,1-.235-1.575,8.923,8.923,0,0,1,.143-1.534,9.7,9.7,0,0,1,.44-1.636,9.294,9.294,0,0,1,.741-1.57,6.289,6.289,0,0,1,1.043-1.329,4.765,4.765,0,0,1,1.355-.92,3.994,3.994,0,0,1,1.667-.343,2.157,2.157,0,0,1,1.293.307.92.92,0,0,1,.4.757v.041l.2-1h3.037L11.412-4.36a5.46,5.46,0,0,1-.66,1.82,3.874,3.874,0,0,1-.961,1.084,2.977,2.977,0,0,1-1.1.521A4.866,4.866,0,0,1,7.6-.8a2.631,2.631,0,0,1-.915-.164,2.52,2.52,0,0,1-.787-.46,2.308,2.308,0,0,1-.552-.711,2.02,2.02,0,0,1-.21-.925A2.5,2.5,0,0,1,5.415-4.3a2.58,2.58,0,0,1,.772-.849,4.855,4.855,0,0,1,1.15-.588Q8-5.975,8.753-6.2Zm1.585-7.505a1.467,1.467,0,0,0-.066-.225.834.834,0,0,0-.138-.235.725.725,0,0,0-.251-.189.928.928,0,0,0-.4-.077,1.393,1.393,0,0,0-.833.286,3.1,3.1,0,0,0-.721.762,6.085,6.085,0,0,0-.583,1.079A10.3,10.3,0,0,0,7.1-11.942a10.268,10.268,0,0,0-.271,1.258,7.618,7.618,0,0,0-.092,1.109,2.994,2.994,0,0,0,.112.93,1.263,1.263,0,0,0,.271.486.63.63,0,0,0,.343.189,2.015,2.015,0,0,0,.327.031,1.216,1.216,0,0,0,.455-.1,1.826,1.826,0,0,0,.475-.291,2.176,2.176,0,0,0,.429-.491,2.724,2.724,0,0,0,.317-.7ZM8.61-5.536a8.088,8.088,0,0,0-.92.368,3.486,3.486,0,0,0-.741.465,2.019,2.019,0,0,0-.491.593,1.56,1.56,0,0,0-.179.752.545.545,0,0,0,.061.245.708.708,0,0,0,.174.22,1.029,1.029,0,0,0,.266.164.84.84,0,0,0,.337.066.869.869,0,0,0,.343-.077A.965.965,0,0,0,7.8-3a2.088,2.088,0,0,0,.307-.506A4,4,0,0,0,8.354-4.3Z" transform="translate(529.032 -783.278)"/></svg>