<svg xmlns="http://www.w3.org/2000/svg" viewBox="-247 673 100 100"><defs><style>.a{fill:#48d4b3;}</style></defs><path class="a" d="M50,100a50,50,0,1,1,50-50,50,50,0,0,1-50,50ZM62.026,59.616v.009l-.44,1.993q-1.721.509-3.223,1.059a11.013,11.013,0,0,0-2.617,1.338,5.858,5.858,0,0,0-1.758,1.931,5.705,5.705,0,0,0-.639,2.814,4.6,4.6,0,0,0,.477,2.106,5.283,5.283,0,0,0,1.256,1.618,5.752,5.752,0,0,0,1.791,1.048,6,6,0,0,0,2.082.373,11.121,11.121,0,0,0,2.479-.3,6.827,6.827,0,0,0,2.512-1.185,8.853,8.853,0,0,0,2.188-2.468,12.49,12.49,0,0,0,1.5-4.141l5.817-27.645H66.54l-.464,2.282a2.16,2.16,0,0,0-.919-1.815,4.928,4.928,0,0,0-2.945-.7,9.116,9.116,0,0,0-3.793.781A10.889,10.889,0,0,0,55.337,40.8a14.358,14.358,0,0,0-2.373,3.025A21.3,21.3,0,0,0,51.275,47.4a22.346,22.346,0,0,0-1,3.722,20.367,20.367,0,0,0-.326,3.491,10.536,10.536,0,0,0,.535,3.582A6.612,6.612,0,0,0,51.9,60.57a5.186,5.186,0,0,0,2.024,1.3,7.2,7.2,0,0,0,2.373.4,7.028,7.028,0,0,0,1.747-.209,7.538,7.538,0,0,0,1.523-.57,7.931,7.931,0,0,0,1.316-.837,11.188,11.188,0,0,0,1.132-1.03ZM50.578,26.293a10.937,10.937,0,0,0-2.466.3,6.927,6.927,0,0,0-2.512,1.19,8.793,8.793,0,0,0-2.2,2.466,12.525,12.525,0,0,0-1.5,4.144L36.13,61.619q-1.7.509-3.187,1.07a11.248,11.248,0,0,0-2.608,1.36,6.055,6.055,0,0,0-1.756,1.933,5.568,5.568,0,0,0-.641,2.779,4.624,4.624,0,0,0,.477,2.106,5.229,5.229,0,0,0,1.27,1.618,5.882,5.882,0,0,0,1.8,1.048,6.01,6.01,0,0,0,2.084.373,10.683,10.683,0,0,0,2.444-.3,6.651,6.651,0,0,0,2.455-1.185,8.747,8.747,0,0,0,2.14-2.468,12.856,12.856,0,0,0,1.478-4.141l5.491-25.736h3.516l.348-1.909H47.948l.815-3.769a7.2,7.2,0,0,1,.639-1.955,4.374,4.374,0,0,1,.886-1.2,2.766,2.766,0,0,1,.954-.593,2.673,2.673,0,0,1,.848-.164,2.067,2.067,0,0,1,1.27.408,1.43,1.43,0,0,1,.546,1.221q0,.325-.022.606l-.071.675h2.235a11.93,11.93,0,0,0,.14-1.955,4.624,4.624,0,0,0-.477-2.106,5.283,5.283,0,0,0-1.256-1.618,5.827,5.827,0,0,0-1.793-1.045,6,6,0,0,0-2.084-.379Zm7.284,43.374a1.877,1.877,0,0,1-.768-.151,2.3,2.3,0,0,1-.606-.373,1.6,1.6,0,0,1-.4-.5,1.247,1.247,0,0,1-.14-.559,3.568,3.568,0,0,1,.406-1.709,4.617,4.617,0,0,1,1.119-1.349,7.8,7.8,0,0,1,1.687-1.059,18.358,18.358,0,0,1,2.093-.839l-.581,2.816a9.192,9.192,0,0,1-.557,1.791,4.746,4.746,0,0,1-.7,1.152,2.241,2.241,0,0,1-.779.606A1.994,1.994,0,0,1,57.862,69.667Zm-25.388,0a1.877,1.877,0,0,1-.768-.151,2.3,2.3,0,0,1-.606-.373,1.6,1.6,0,0,1-.4-.5,1.247,1.247,0,0,1-.14-.559,3.6,3.6,0,0,1,.4-1.7,4.57,4.57,0,0,1,1.094-1.338A7.574,7.574,0,0,1,33.72,64a19.369,19.369,0,0,1,2.082-.826l-.628,2.77a10.522,10.522,0,0,1-.535,1.791,4.534,4.534,0,0,1-.664,1.152,2.2,2.2,0,0,1-.744.606A1.825,1.825,0,0,1,32.474,69.667ZM59.4,57.66a4.581,4.581,0,0,1-.746-.069,1.44,1.44,0,0,1-.779-.431,2.888,2.888,0,0,1-.617-1.1A6.85,6.85,0,0,1,57,53.938a17.384,17.384,0,0,1,.209-2.526,23.533,23.533,0,0,1,.617-2.861,23.249,23.249,0,0,1,.99-2.828,13.714,13.714,0,0,1,1.325-2.455,7.1,7.1,0,0,1,1.64-1.736,3.194,3.194,0,0,1,1.9-.65,2.131,2.131,0,0,1,.919.173,1.706,1.706,0,0,1,.57.431,1.879,1.879,0,0,1,.313.537,3.155,3.155,0,0,1,.153.51L63.213,54.078a6.255,6.255,0,0,1-.721,1.582,5.016,5.016,0,0,1-.977,1.116,4.225,4.225,0,0,1-1.083.664A2.786,2.786,0,0,1,59.4,57.66Z" transform="translate(-247 673)"/></svg>