<svg xmlns="http://www.w3.org/2000/svg" viewBox="731.438 456.594 457.324 96.906"><defs><style>.a{fill:#48d4b3;stroke:rgba(0,0,0,0);}</style></defs><path class="a" d="M-4.125,2.391a38.466,38.466,0,0,0-4.2,1.664A15.519,15.519,0,0,0-11.7,6.164a9.374,9.374,0,0,0-2.25,2.7,7.015,7.015,0,0,0-.82,3.422,2.5,2.5,0,0,0,.281,1.125,3.248,3.248,0,0,0,.8,1.008,4.719,4.719,0,0,0,1.219.75,3.849,3.849,0,0,0,1.547.3,3.727,3.727,0,0,0,1.5-.352A4.712,4.712,0,0,0-7.852,13.9,9.584,9.584,0,0,0-6.4,11.578,15.718,15.718,0,0,0-5.3,7.969ZM56.625-17.2a33.554,33.554,0,0,1-4.687,9.375,23.359,23.359,0,0,1-5.484,5.391A15.923,15.923,0,0,1,41.016,0a22.144,22.144,0,0,1-4.547.563,12.119,12.119,0,0,1-4.031-.656A8.4,8.4,0,0,1,29.18-2.156,9.882,9.882,0,0,1,27-5.719a15.056,15.056,0,0,1-.8-5.2,24.461,24.461,0,0,1,.188-2.883q.188-1.57.563-3.4l9.984-47.109a13.42,13.42,0,0,0-2.156-.7q-1.172-.281-2.273-.469t-2.016-.281q-.914-.094-1.383-.094a6.3,6.3,0,0,0-1.758.281,4.888,4.888,0,0,0-1.875,1.1,8.027,8.027,0,0,0-1.687,2.32,14.807,14.807,0,0,0-1.242,3.891L20.438-48h8.953l-.8,3.844H19.688L8.719,7.688A25.031,25.031,0,0,1,5.7,16.031,17.758,17.758,0,0,1,1.289,21,13.668,13.668,0,0,1-3.75,23.391,22,22,0,0,1-8.719,24a12.061,12.061,0,0,1-4.2-.75,11.848,11.848,0,0,1-3.633-2.109A10.421,10.421,0,0,1-19.1,17.883a9.258,9.258,0,0,1-.961-4.242,11.209,11.209,0,0,1,1.289-5.6,12.143,12.143,0,0,1,3.539-3.891A22.327,22.327,0,0,1-9.961,1.406Q-6.937.281-3.469-.75L8.063-55.594a25.031,25.031,0,0,1,3.023-8.344,17.4,17.4,0,0,1,4.453-4.969A14.1,14.1,0,0,1,20.625-71.3a21.823,21.823,0,0,1,4.922-.609,36.356,36.356,0,0,1,6.422.563,60.868,60.868,0,0,1,6.281,1.477q3.141.914,6.281,2.109T50.953-65.3L40.406-15.375a8.187,8.187,0,0,0-.3,1.57q-.07.773-.07,1.523a3.414,3.414,0,0,0,.961,2.789,4.712,4.712,0,0,0,2.977.773,6.34,6.34,0,0,0,2.742-.633,8.8,8.8,0,0,0,2.461-1.758,12.509,12.509,0,0,0,2.016-2.7,15.249,15.249,0,0,0,1.406-3.4Zm73.172,0a34.437,34.437,0,0,1-4.641,9.375,23.612,23.612,0,0,1-5.344,5.391A15.188,15.188,0,0,1,114.586,0,20.086,20.086,0,0,1,110.3.563a11,11,0,0,1-4.172-.727,8.155,8.155,0,0,1-3.141-2.32,14.69,14.69,0,0,1-2.367-4.125,43.719,43.719,0,0,1-1.852-6.141,41.432,41.432,0,0,1-6.492,5.438,48.119,48.119,0,0,1-7.547,4.2A44.973,44.973,0,0,1,76.617-.4a36.164,36.164,0,0,1-8.18.961,25.7,25.7,0,0,1-6.609-.82,14.965,14.965,0,0,1-5.437-2.648,12.566,12.566,0,0,1-3.7-4.828,17.789,17.789,0,0,1-1.359-7.359,39.529,39.529,0,0,1,.563-6.141A48.154,48.154,0,0,1,53.672-28.5a41.9,41.9,0,0,1,3.234-7.383A29.573,29.573,0,0,1,61.781-42.4a22.918,22.918,0,0,1,6.7-4.664,20.622,20.622,0,0,1,8.766-1.781,15.1,15.1,0,0,1,5.273.773,8.517,8.517,0,0,1,3.234,2.039A6.746,6.746,0,0,1,87.4-43.1a13.27,13.27,0,0,1,.445,3.445A16.835,16.835,0,0,1,86.016-31.9a20.677,20.677,0,0,1-4.9,6.258,25.265,25.265,0,0,1-7.078,4.313,26.431,26.431,0,0,1-8.367,1.922,12.482,12.482,0,0,0-.117,1.336q-.023.68-.023,1.289a11.885,11.885,0,0,0,.75,4.5,7.524,7.524,0,0,0,2.039,2.93,7.653,7.653,0,0,0,3.047,1.57,14.6,14.6,0,0,0,3.773.469,23.947,23.947,0,0,0,5.531-.7,32.26,32.26,0,0,0,5.93-2.062A34.44,34.44,0,0,0,92.438-13.5a34.4,34.4,0,0,0,5.3-4.734L92.25-48H105.8l3.7,20.719q2.156-2.3,3.867-4.477a39.542,39.542,0,0,0,2.883-4.148,21.589,21.589,0,0,0,1.781-3.656,8.882,8.882,0,0,0,.609-2.953v-.656a1.376,1.376,0,0,0-.094-.516q-.516.094-.867.141a6.724,6.724,0,0,1-.867.047,4.486,4.486,0,0,1-2.109-.445,3.923,3.923,0,0,1-1.359-1.148,4.365,4.365,0,0,1-.727-1.594,7.705,7.705,0,0,1-.211-1.781,4.548,4.548,0,0,1,1.453-3.727,5.637,5.637,0,0,1,3.7-1.2,6.329,6.329,0,0,1,2.953.656,6.125,6.125,0,0,1,2.109,1.781,7.86,7.86,0,0,1,1.266,2.648,12.161,12.161,0,0,1,.422,3.258,15.755,15.755,0,0,1-.773,4.781,25.242,25.242,0,0,1-2.437,5.227,52.024,52.024,0,0,1-4.266,6q-2.6,3.211-6.258,7.148l.844,4.688q.281,1.359.609,2.836a13.454,13.454,0,0,0,.914,2.742,6.02,6.02,0,0,0,1.547,2.086,3.875,3.875,0,0,0,2.6.82,6.34,6.34,0,0,0,2.742-.633,8.8,8.8,0,0,0,2.461-1.758,12.509,12.509,0,0,0,2.016-2.7,16.993,16.993,0,0,0,1.453-3.4ZM66.422-24a11.75,11.75,0,0,0,5.3-1.477A16.681,16.681,0,0,0,76.2-29.039a17.189,17.189,0,0,0,3.094-4.992,15.237,15.237,0,0,0,1.148-5.812,6.686,6.686,0,0,0-.516-2.859,1.892,1.892,0,0,0-1.875-1.078,5.118,5.118,0,0,0-3.609,1.828,20.812,20.812,0,0,0-3.328,4.711,44.013,44.013,0,0,0-2.766,6.4A56.71,56.71,0,0,0,66.422-24Zm83.063-36.75a7.3,7.3,0,0,1-.609,2.977,7.389,7.389,0,0,1-1.664,2.391,8.028,8.028,0,0,1-2.437,1.594,7.55,7.55,0,0,1-2.977.586,7.55,7.55,0,0,1-2.977-.586,7.733,7.733,0,0,1-2.414-1.594,7.266,7.266,0,0,1-1.617-2.391,7.55,7.55,0,0,1-.586-2.977,7.55,7.55,0,0,1,.586-2.977,7.813,7.813,0,0,1,1.617-2.437,7.663,7.663,0,0,1,2.414-1.664,7.3,7.3,0,0,1,2.977-.609,7.3,7.3,0,0,1,2.977.609,7.948,7.948,0,0,1,2.438,1.664,7.948,7.948,0,0,1,1.664,2.438A7.3,7.3,0,0,1,149.484-60.75ZM155.438-17.2a39.064,39.064,0,0,1-3.023,6.75,27.878,27.878,0,0,1-3.469,4.828,19,19,0,0,1-3.7,3.188,19.056,19.056,0,0,1-3.68,1.875,16.86,16.86,0,0,1-3.4.891,20.335,20.335,0,0,1-2.883.234,12.119,12.119,0,0,1-4.031-.656,8.4,8.4,0,0,1-3.258-2.062,9.882,9.882,0,0,1-2.18-3.562,15.056,15.056,0,0,1-.8-5.2A24.461,24.461,0,0,1,125.2-13.8q.188-1.57.563-3.4L132.281-48h13.828l-6.891,32.625a8.187,8.187,0,0,0-.3,1.57q-.07.773-.07,1.523a3.463,3.463,0,0,0,.938,2.789,4.607,4.607,0,0,0,2.953.773,6.34,6.34,0,0,0,2.742-.633,8.8,8.8,0,0,0,2.461-1.758,12.509,12.509,0,0,0,2.016-2.7,16.993,16.993,0,0,0,1.453-3.4ZM161.672-65.3l14.2-1.922-4.594,21.609a27.179,27.179,0,0,1,2.6-1.43,15.393,15.393,0,0,1,2.086-.82,8.779,8.779,0,0,1,1.711-.352q.773-.07,1.477-.07a12.207,12.207,0,0,1,4.617.844,8.544,8.544,0,0,1,3.586,2.789,14.088,14.088,0,0,1,2.32,5.086,30.872,30.872,0,0,1,.82,7.688,41.7,41.7,0,0,1-.539,6.3,42.433,42.433,0,0,1-1.758,7.1,37.426,37.426,0,0,1-3.234,7.031,26.5,26.5,0,0,1-4.922,6.094A22.8,22.8,0,0,1,173.2-1.055,23.659,23.659,0,0,1,164.156.563q-6.656,0-10.031-3.234t-3.375-9.047a27.09,27.09,0,0,1,.141-2.742,16.617,16.617,0,0,1,.516-2.742Zm3.094,49.922a9.889,9.889,0,0,0-.281,2.2q0,4.453,5.063,4.453a5.048,5.048,0,0,0,3-1.055,11.932,11.932,0,0,0,2.7-2.812,23.174,23.174,0,0,0,2.273-4.125,38.051,38.051,0,0,0,1.758-4.969A42.866,42.866,0,0,0,180.4-27a36.212,36.212,0,0,0,.4-5.25,18.831,18.831,0,0,0-.3-3.4,11.669,11.669,0,0,0-.937-2.977,5.922,5.922,0,0,0-1.594-2.086,3.515,3.515,0,0,0-2.273-.773q-.516,0-1.312.07a10.613,10.613,0,0,0-1.641.281,9.271,9.271,0,0,0-1.57.539,3.1,3.1,0,0,0-1.148.844ZM223.688-17.2a39.064,39.064,0,0,1-3.023,6.75A27.878,27.878,0,0,1,217.2-5.625a19,19,0,0,1-3.7,3.188,19.056,19.056,0,0,1-3.68,1.875,16.86,16.86,0,0,1-3.4.891,20.335,20.335,0,0,1-2.883.234A12.119,12.119,0,0,1,199.5-.094a8.4,8.4,0,0,1-3.258-2.062,9.882,9.882,0,0,1-2.18-3.562,15.056,15.056,0,0,1-.8-5.2,24.461,24.461,0,0,1,.188-2.883q.188-1.57.563-3.4L204.281-65.3l14.2-1.922L207.469-15.375a8.187,8.187,0,0,0-.3,1.57q-.07.773-.07,1.523a3.463,3.463,0,0,0,.938,2.789,4.607,4.607,0,0,0,2.953.773,6.34,6.34,0,0,0,2.742-.633,8.8,8.8,0,0,0,2.461-1.758,12.509,12.509,0,0,0,2.016-2.7,16.993,16.993,0,0,0,1.453-3.4ZM249.8-13.641a20.949,20.949,0,0,1-2.344,6.891,14.44,14.44,0,0,1-3.8,4.359,13.455,13.455,0,0,1-4.875,2.3A23.306,23.306,0,0,1,233.2.563,20.23,20.23,0,0,1,227.086-.3,12.032,12.032,0,0,1,222.4-3a12.2,12.2,0,0,1-3.023-4.711,19.927,19.927,0,0,1-1.078-6.961,41.981,41.981,0,0,1,.563-6.375,48.876,48.876,0,0,1,1.781-7.406,42.031,42.031,0,0,1,3.234-7.453,29.351,29.351,0,0,1,4.875-6.539,22.559,22.559,0,0,1,6.7-4.641,20.858,20.858,0,0,1,8.766-1.758,15.1,15.1,0,0,1,5.273.773,8.517,8.517,0,0,1,3.234,2.039,6.746,6.746,0,0,1,1.641,2.93,13.27,13.27,0,0,1,.445,3.445,16.835,16.835,0,0,1-1.828,7.758,20.677,20.677,0,0,1-4.9,6.258,25.362,25.362,0,0,1-7.055,4.313,26.109,26.109,0,0,1-8.3,1.922q-.094.8-.164,1.523T232.5-16.5a13.446,13.446,0,0,0,.469,3.844,6.625,6.625,0,0,0,1.266,2.461,4.363,4.363,0,0,0,1.875,1.289,7.089,7.089,0,0,0,2.344.375,10.968,10.968,0,0,0,2.93-.422,18.378,18.378,0,0,0,3-1.125,25.043,25.043,0,0,0,2.883-1.617A19.3,19.3,0,0,0,249.8-13.641ZM233.391-24a11.75,11.75,0,0,0,5.3-1.477,16.681,16.681,0,0,0,4.477-3.562,17.189,17.189,0,0,0,3.094-4.992,15.237,15.237,0,0,0,1.148-5.812,6.686,6.686,0,0,0-.516-2.859,1.892,1.892,0,0,0-1.875-1.078,5.069,5.069,0,0,0-3.586,1.8,20.38,20.38,0,0,0-3.281,4.664,46.511,46.511,0,0,0-2.766,6.375A58.291,58.291,0,0,0,233.391-24Zm76.5,31.688a25.771,25.771,0,0,1-2.977,8.344A17.356,17.356,0,0,1,302.578,21a13.476,13.476,0,0,1-4.992,2.391,21.885,21.885,0,0,1-4.992.609,14.313,14.313,0,0,1-4.148-.586,10.128,10.128,0,0,1-3.4-1.734,8.354,8.354,0,0,1-2.32-2.906,9.164,9.164,0,0,1-.867-4.1,9.814,9.814,0,0,1,1.43-5.3,14.917,14.917,0,0,1,3.68-4.008,24.47,24.47,0,0,1,5.039-2.93A52.992,52.992,0,0,1,297.516.375l1.172-5.062a18.707,18.707,0,0,1-4.945,3.75,13.882,13.882,0,0,1-6.586,1.5,14.483,14.483,0,0,1-4.781-.8A10.4,10.4,0,0,1,278.3-2.859a13.251,13.251,0,0,1-2.859-4.781,21.168,21.168,0,0,1-1.078-7.219,40.906,40.906,0,0,1,.656-7.031,44.49,44.49,0,0,1,2.016-7.5,42.608,42.608,0,0,1,3.4-7.2,28.829,28.829,0,0,1,4.781-6.094,21.843,21.843,0,0,1,6.211-4.219,18.312,18.312,0,0,1,7.641-1.57q4.078,0,5.93,1.406a4.218,4.218,0,0,1,1.852,3.469v.563L307.875-48H321.7L312.188-3.469a21.22,21.22,0,0,0,3.984-1.8,14.206,14.206,0,0,0,3.258-2.672,18.735,18.735,0,0,0,2.672-3.867,31.866,31.866,0,0,0,2.18-5.391h4.031a33.4,33.4,0,0,1-3.445,7.969,24.566,24.566,0,0,1-4.242,5.227,17.921,17.921,0,0,1-4.641,3.117A27.605,27.605,0,0,1,311.344.75Zm-3.937-46.641a3.619,3.619,0,0,0-.187-1.031,3.588,3.588,0,0,0-.633-1.172,3.722,3.722,0,0,0-1.2-.961,4.08,4.08,0,0,0-1.922-.4A6.388,6.388,0,0,0,298.2-41.2a14.216,14.216,0,0,0-3.3,3.492,27.894,27.894,0,0,0-2.672,4.945,47.2,47.2,0,0,0-1.992,5.7,47.074,47.074,0,0,0-1.242,5.766,34.925,34.925,0,0,0-.422,5.086,13.724,13.724,0,0,0,.516,4.266,5.792,5.792,0,0,0,1.242,2.227,2.889,2.889,0,0,0,1.57.867,9.238,9.238,0,0,0,1.5.141,5.283,5.283,0,0,0,2.109-.492,9.07,9.07,0,0,0,2.227-1.43,10.234,10.234,0,0,0,1.992-2.344,11.2,11.2,0,0,0,1.359-3.234ZM296.531,5.2q-1.875.7-3.562,1.523a17.486,17.486,0,0,0-2.977,1.8,8.722,8.722,0,0,0-2.062,2.18,4.774,4.774,0,0,0-.773,2.648,3.406,3.406,0,0,0,.188,1.078,3.091,3.091,0,0,0,.586,1.031,2.888,2.888,0,0,0,1.008.75,3.444,3.444,0,0,0,1.453.281q1.5,0,3.07-2.086a16.78,16.78,0,0,0,2.508-6.445ZM320.625,0,330.8-48h13.828l-1.219,5.953q1.266-1.125,2.578-2.2a19.992,19.992,0,0,1,2.742-1.9,16.369,16.369,0,0,1,2.977-1.336A10.309,10.309,0,0,1,354.984-48a6.469,6.469,0,0,1,2.883.609,6.448,6.448,0,0,1,2.086,1.594,6.579,6.579,0,0,1,1.266,2.3,8.83,8.83,0,0,1,.422,2.719,7.752,7.752,0,0,1-.422,2.508,6.5,6.5,0,0,1-1.289,2.227,6.789,6.789,0,0,1-2.18,1.617,6.939,6.939,0,0,1-3.047.633,3.855,3.855,0,0,1-2.086-.469,3.155,3.155,0,0,1-1.1-1.172,5.516,5.516,0,0,1-.539-1.523q-.164-.82-.352-1.523a4.07,4.07,0,0,0-.492-1.172,1.111,1.111,0,0,0-1.008-.469,6.492,6.492,0,0,0-3.7,1.008,28.044,28.044,0,0,0-3.281,2.648L334.453,0Zm63.469-60.75a7.3,7.3,0,0,1-.609,2.977,7.389,7.389,0,0,1-1.664,2.391,8.028,8.028,0,0,1-2.437,1.594,7.55,7.55,0,0,1-2.977.586,7.55,7.55,0,0,1-2.977-.586,7.733,7.733,0,0,1-2.414-1.594,7.266,7.266,0,0,1-1.617-2.391,7.55,7.55,0,0,1-.586-2.977,7.55,7.55,0,0,1,.586-2.977,7.813,7.813,0,0,1,1.617-2.437,7.663,7.663,0,0,1,2.414-1.664,7.3,7.3,0,0,1,2.977-.609,7.3,7.3,0,0,1,2.977.609,7.948,7.948,0,0,1,2.438,1.664,7.948,7.948,0,0,1,1.664,2.438A7.3,7.3,0,0,1,384.094-60.75ZM390.047-17.2a39.064,39.064,0,0,1-3.023,6.75,27.878,27.878,0,0,1-3.469,4.828,19,19,0,0,1-3.7,3.188,19.056,19.056,0,0,1-3.68,1.875,16.86,16.86,0,0,1-3.4.891,20.335,20.335,0,0,1-2.883.234,12.119,12.119,0,0,1-4.031-.656A8.4,8.4,0,0,1,362.6-2.156a9.882,9.882,0,0,1-2.18-3.562,15.056,15.056,0,0,1-.8-5.2,24.461,24.461,0,0,1,.188-2.883q.188-1.57.563-3.4L366.891-48h13.828l-6.891,32.625a8.187,8.187,0,0,0-.3,1.57q-.07.773-.07,1.523a3.463,3.463,0,0,0,.938,2.789,4.607,4.607,0,0,0,2.953.773,6.34,6.34,0,0,0,2.742-.633,8.8,8.8,0,0,0,2.461-1.758,12.509,12.509,0,0,0,2.016-2.7,16.993,16.993,0,0,0,1.453-3.4ZM421.922-65.3l14.2-1.922L425.109-15.375a10.218,10.218,0,0,0-.328,1.477,9.77,9.77,0,0,0-.094,1.336,4.377,4.377,0,0,0,.844,2.742,3.693,3.693,0,0,0,3.094,1.1,7.364,7.364,0,0,0,1.969-.187,9.4,9.4,0,0,0,1.125-.422A11.329,11.329,0,0,1,430.57-4.9a9.894,9.894,0,0,1-2.414,3.07,9.629,9.629,0,0,1-3.281,1.8,12.065,12.065,0,0,1-3.7.586A13.189,13.189,0,0,1,417.7.117a8.893,8.893,0,0,1-2.953-1.406,8.359,8.359,0,0,1-2.227-2.484,11.335,11.335,0,0,1-1.336-3.633A29.5,29.5,0,0,1,408.7-4.43a17.847,17.847,0,0,1-3.047,2.555,15.021,15.021,0,0,1-3.7,1.781,14.163,14.163,0,0,1-4.406.656,14.483,14.483,0,0,1-4.781-.8,10.4,10.4,0,0,1-4.078-2.625,13.251,13.251,0,0,1-2.859-4.781,21.168,21.168,0,0,1-1.078-7.219,40.906,40.906,0,0,1,.656-7.031,44.49,44.49,0,0,1,2.016-7.5,42.608,42.608,0,0,1,3.4-7.2A28.829,28.829,0,0,1,395.6-42.68a21.843,21.843,0,0,1,6.211-4.219,18.312,18.312,0,0,1,7.641-1.57q4.078,0,5.93,1.406a4.218,4.218,0,0,1,1.852,3.469v.375ZM411.656-17.2l4.688-21.984a7.5,7.5,0,0,0-.3-.984,4.167,4.167,0,0,0-.633-1.1,3.19,3.19,0,0,0-1.148-.891,4.253,4.253,0,0,0-1.852-.352,6.388,6.388,0,0,0-3.82,1.313,14.216,14.216,0,0,0-3.3,3.492,27.894,27.894,0,0,0-2.672,4.945,47.2,47.2,0,0,0-1.992,5.7,47.074,47.074,0,0,0-1.242,5.766,34.925,34.925,0,0,0-.422,5.086,13.724,13.724,0,0,0,.516,4.266,5.792,5.792,0,0,0,1.242,2.227,2.889,2.889,0,0,0,1.57.867,9.238,9.238,0,0,0,1.5.141,5.4,5.4,0,0,0,2.063-.445,8.1,8.1,0,0,0,2.109-1.312,10.3,10.3,0,0,0,1.9-2.156,12.045,12.045,0,0,0,1.43-3.023Z" transform="translate(752 529)"/></svg>